# xmcd CD database file
#
# Track frame offsets:
#	150
#	14925
#	31455
#	45619
#	58025
#	75006
#	87942
#	108642
#	126115
#	142995
#	158414
#	171666
#
# Disc length: 2484 seconds
#
# Revision: 3
# Processed by: cddbd v1.4PL0 Copyright (c) Steve Scherf et al.
# Submitted via: CDex 1.40Release
#
DISCID=9909b20c
DTITLE=Patrick Bruel - Entre-deux  disc 1
DYEAR=2002
DGENRE=Française
TTITLE0=Mon amant de Saint-Jean
TTITLE1=Ménilmontant
TTITLE2=Ah! si vous connaissiez ma poule
TTITLE3=Paris, je t'aime d'amour
TTITLE4=Que reste-t-il de nos amours
TTITLE5=Vous qui passez sans me voir
TTITLE6=Comme de bien entendu
TTITLE7=Où sont tous mes amants
TTITLE8=Je suis dans la dèche
TTITLE9=Quand on s'promène au bord de l'eau
TTITLE10=Le temps des cerises
TTITLE11=Qu'est-ce qu'on attend pour être heureux ?
EXTD=YEAR: 2002
EXTT0=
EXTT1=
EXTT2=
EXTT3=
EXTT4=
EXTT5=
EXTT6=
EXTT7=
EXTT8=
EXTT9=
EXTT10=
EXTT11=
PLAYORDER=
